<svg width="36" height="37" viewBox="0 0 36 37" fill="none" xmlns="http://www.w3.org/2000/svg">
<g clip-path="url(#clip0_287_277)">
<path fill-rule="evenodd" clip-rule="evenodd" d="M36 18.5C36 28.4411 27.9411 36.5 18 36.5C8.05888 36.5 0 28.4411 0 18.5C0 8.55888 8.05888 0.5 18 0.5C27.9411 0.5 36 8.55888 36 18.5ZM18.645 13.7884C16.8943 14.5166 13.3952 16.0238 8.14784 18.31C7.29575 18.6488 6.84939 18.9803 6.80875 19.3045C6.74008 19.8522 7.42607 20.0679 8.3602 20.3617C8.48727 20.4016 8.61893 20.443 8.75391 20.4869C9.67296 20.7857 10.9092 21.1352 11.5519 21.149C12.1349 21.1616 12.7856 20.9213 13.504 20.428C18.4067 17.1185 20.9376 15.4457 21.0965 15.4097C21.2086 15.3842 21.3639 15.3522 21.4691 15.4458C21.5744 15.5393 21.5641 15.7165 21.5529 15.764C21.4849 16.0537 18.7922 18.5571 17.3987 19.8527C16.9643 20.2565 16.6561 20.543 16.5931 20.6085C16.452 20.755 16.3082 20.8937 16.17 21.0269C15.3162 21.85 14.6759 22.4672 16.2054 23.4752C16.9405 23.9596 17.5286 24.3601 18.1154 24.7597C18.7563 25.1961 19.3954 25.6314 20.2224 26.1735C20.4331 26.3116 20.6343 26.4551 20.8303 26.5948C21.5761 27.1265 22.2461 27.6041 23.0739 27.5279C23.5549 27.4837 24.0517 27.0314 24.304 25.6825C24.9003 22.4947 26.0724 15.5877 26.3433 12.7415C26.3671 12.4921 26.3372 12.173 26.3132 12.0329C26.2893 11.8928 26.2392 11.6932 26.057 11.5454C25.8414 11.3704 25.5085 11.3335 25.3595 11.3361C24.6825 11.3481 23.6438 11.7092 18.645 13.7884Z" fill="white"/>
</g>
<defs>
<clipPath id="clip0_287_277">
<rect width="36" height="36" fill="white" transform="translate(0 0.5)"/>
</clipPath>
</defs>
</svg>
