<svg width="75" height="51" viewBox="0 0 75 51" fill="none" xmlns="http://www.w3.org/2000/svg">
<path d="M1.66649 11.9858C1.82642 11.9858 1.98479 11.9543 2.13255 11.8931C2.2803 11.8319 2.41456 11.7422 2.52765 11.6291C2.64074 11.516 2.73044 11.3818 2.79165 11.234C2.85285 11.0862 2.88435 10.9279 2.88435 10.7679V5.06965C2.86197 4.75075 2.90263 4.43057 3.00402 4.12739C3.10542 3.82422 3.26555 3.54399 3.47527 3.30271C3.685 3.06144 3.94021 2.86385 4.22631 2.72124C4.51242 2.57863 4.82383 2.49378 5.14273 2.47155C5.20042 2.47155 5.26025 2.47155 5.32007 2.47155C5.93908 2.46414 6.5357 2.7028 6.97881 3.1351C7.42192 3.56739 7.67526 4.15794 7.68315 4.77694C7.68456 4.87544 7.67956 4.97393 7.66819 5.07179V10.7594C7.66819 11.0824 7.7965 11.3922 8.02489 11.6206C8.25328 11.849 8.56305 11.9773 8.88605 11.9773C9.20905 11.9773 9.51881 11.849 9.74721 11.6206C9.9756 11.3922 10.1039 11.0824 10.1039 10.7594V4.94787C10.1039 4.30244 10.3603 3.68345 10.8167 3.22706C11.2731 2.77068 11.8921 2.51428 12.5375 2.51428C12.8397 2.50919 13.1399 2.56368 13.4211 2.67464C13.7022 2.7856 13.9587 2.95086 14.176 3.16097C14.3932 3.37109 14.567 3.62195 14.6873 3.89922C14.8076 4.17649 14.8721 4.47474 14.8771 4.77694C14.8795 4.89341 14.8724 5.0099 14.8557 5.1252V10.7594C14.8557 11.0824 14.984 11.3922 15.2124 11.6206C15.4408 11.849 15.7506 11.9773 16.0736 11.9773C16.3966 11.9773 16.7063 11.849 16.9347 11.6206C17.1631 11.3922 17.2914 11.0824 17.2914 10.7594V4.73421C17.2786 1.99509 15.6719 0.279402 13.1165 0.279402C12.3932 0.260317 11.6752 0.408492 11.0185 0.712381C10.3618 1.01627 9.7841 1.46767 9.33046 2.03141C8.97334 1.46158 8.46955 0.998282 7.87187 0.690042C7.27418 0.381803 6.6046 0.239969 5.93327 0.279402C4.77989 0.266411 3.66665 0.702363 2.8288 1.49513C2.81564 1.18123 2.6817 0.884571 2.45494 0.667123C2.22819 0.449675 1.92618 0.328266 1.61201 0.328266C1.29784 0.328266 0.99583 0.449675 0.769077 0.667123C0.542324 0.884571 0.408375 1.18123 0.395219 1.49513V10.7466C0.391816 10.9065 0.419958 11.0656 0.478037 11.2146C0.536117 11.3637 0.622996 11.4998 0.733711 11.6153C0.844426 11.7308 0.976806 11.8233 1.12329 11.8876C1.26978 11.9519 1.4275 11.9867 1.58744 11.9901L1.66649 11.9858Z" fill="white"/>
<path d="M25.8188 11.9858C26.9771 11.9862 28.1096 11.6431 29.073 10.9998C30.0364 10.3566 30.7873 9.44207 31.2309 8.37199C31.6745 7.30191 31.7908 6.12432 31.565 4.98814C31.3393 3.85197 30.7817 2.80826 29.9628 1.98901C29.1438 1.16976 28.1003 0.611781 26.9642 0.385637C25.8281 0.159493 24.6505 0.275346 23.5802 0.718541C22.51 1.16174 21.5952 1.91237 20.9516 2.87549C20.308 3.83862 19.9645 4.97098 19.9645 6.12936C19.9645 7.68221 20.5812 9.17148 21.679 10.2697C22.7769 11.3679 24.2659 11.9852 25.8188 11.9858ZM25.8188 2.4651C26.2808 2.47095 26.7371 2.5678 27.1617 2.7501C27.5863 2.9324 27.9708 3.19659 28.2933 3.52756C28.6157 3.85853 28.8697 4.24979 29.0409 4.67899C29.212 5.10819 29.2969 5.56692 29.2907 6.02894C29.2907 6.05885 29.2907 6.08877 29.2907 6.11654C29.3022 6.58101 29.2207 7.04308 29.0509 7.47555C28.8811 7.90802 28.6265 8.30215 28.3021 8.63472C27.9776 8.96729 27.5899 9.23158 27.1618 9.41203C26.7337 9.59248 26.2738 9.68545 25.8091 9.68545C25.3445 9.68545 24.8846 9.59248 24.4565 9.41203C24.0284 9.23158 23.6407 8.96729 23.3162 8.63472C22.9918 8.30215 22.7372 7.90802 22.5674 7.47555C22.3976 7.04308 22.3161 6.58101 22.3276 6.11654C22.2894 5.18766 22.6214 4.2816 23.2508 3.59736C23.8801 2.91312 24.7553 2.50665 25.6842 2.46724H25.8209L25.8188 2.4651Z" fill="white"/>
<path d="M35.7281 11.9858C36.0511 11.9858 36.3609 11.8575 36.5893 11.6291C36.8177 11.4007 36.946 11.0909 36.946 10.7679V5.75118C36.9265 4.96381 37.2205 4.20095 37.7634 3.63037C38.3064 3.0598 39.0537 2.72826 39.8411 2.70867H40.0013C40.3243 2.70867 40.6341 2.58036 40.8625 2.35196C41.0908 2.12357 41.2192 1.8138 41.2192 1.4908C41.2226 1.20387 41.112 0.927296 40.9117 0.721799C40.7114 0.516302 40.4378 0.398675 40.1509 0.394734H40.0889C39.4939 0.391867 38.9055 0.519076 38.3648 0.767458C37.8241 1.01584 37.3442 1.37939 36.9588 1.83266V1.4908C36.9998 1.31234 37.0001 1.12691 36.9596 0.94832C36.919 0.769733 36.8387 0.602587 36.7247 0.459318C36.6106 0.316049 36.4657 0.200347 36.3008 0.120823C36.1358 0.0412984 35.955 0 35.7719 0C35.5888 0 35.408 0.0412984 35.243 0.120823C35.0781 0.200347 34.9332 0.316049 34.8191 0.459318C34.7051 0.602587 34.6248 0.769733 34.5842 0.94832C34.5437 1.12691 34.544 1.31234 34.585 1.4908V10.7423C34.5783 11.057 34.6936 11.3621 34.9066 11.5938C35.1196 11.8256 35.414 11.966 35.7281 11.9858Z" fill="white"/>
<path d="M48.1697 11.9857C49.5113 12.0011 50.8205 11.573 51.8938 10.7678C52.0705 10.6633 52.2179 10.5159 52.3225 10.3393C52.4271 10.1626 52.4854 9.9624 52.492 9.75722C52.4853 9.49578 52.3751 9.24768 52.1856 9.06741C51.9961 8.88715 51.7429 8.78944 51.4814 8.79575C51.2586 8.80906 51.0436 8.88294 50.8597 9.00941C50.109 9.58481 49.1881 9.89379 48.2423 9.88756C47.3748 9.94521 46.5174 9.67406 45.8407 9.12807C45.1641 8.58209 44.7179 7.80132 44.5909 6.94119H51.7613C52.0814 6.9811 52.4043 6.89238 52.659 6.6945C52.9138 6.49661 53.0796 6.20574 53.1202 5.88571C53.1298 5.79552 53.1298 5.70456 53.1202 5.61436V5.47976C53.1413 4.81673 53.0316 4.15604 52.7973 3.53542C52.563 2.9148 52.2088 2.3464 51.7549 1.86268C51.3009 1.37897 50.7561 0.989418 50.1516 0.71627C49.5471 0.443121 48.8947 0.29173 48.2316 0.270739C48.127 0.270739 48.018 0.270739 47.9218 0.270739C47.169 0.263975 46.4223 0.405562 45.7242 0.687414C45.0261 0.969266 44.3904 1.38586 43.8533 1.91342C43.3162 2.44097 42.8883 3.06915 42.594 3.76209C42.2997 4.45502 42.1448 5.19914 42.1381 5.95195C42.1381 6.01391 42.1381 6.07587 42.1381 6.13783C42.1276 6.89542 42.2665 7.64765 42.5468 8.35156C42.8271 9.05547 43.2433 9.69726 43.7717 10.2403C44.3 10.7833 44.9302 11.217 45.6261 11.5165C46.3221 11.8159 47.0702 11.9754 47.8278 11.9857C47.9453 11.9921 48.0586 11.99 48.1697 11.9857ZM47.8535 2.30691C48.5719 2.26547 49.2774 2.51085 49.815 2.98918C50.3526 3.4675 50.6784 4.13966 50.7208 4.85801C50.724 4.92064 50.724 4.9834 50.7208 5.04603H44.64C44.7637 4.28249 45.1548 3.58779 45.7435 3.08603C46.3321 2.58426 47.08 2.30811 47.8535 2.30691Z" fill="white"/>
<path d="M63.9227 16.3785H2.43361C1.79277 16.3943 1.18256 16.656 0.729484 17.1095C0.276405 17.563 0.0152046 18.1734 3.05176e-05 18.8143V40.725C3.04587e-05 43.4497 1.08227 46.0629 3.00872 47.9897C4.93517 49.9166 7.54808 50.9994 10.2728 50.9999H63.9227C66.6369 51 69.2408 49.9259 71.1656 48.0123C73.0904 46.0987 74.1796 43.5011 74.1954 40.787V26.6534C74.1954 23.9287 73.1132 21.3156 71.1868 19.3887C69.2603 17.4619 66.6474 16.3791 63.9227 16.3785ZM14.7404 42.2719C13.8849 42.2849 13.0361 42.1195 12.2482 41.7862C11.4602 41.4529 10.7503 40.9591 10.1638 40.3362C10.0415 40.2307 9.94425 40.0992 9.8792 39.9514C9.81414 39.8035 9.78291 39.643 9.78777 39.4815C9.78548 39.2424 9.85437 39.0081 9.98569 38.8082C10.117 38.6084 10.3048 38.4521 10.5252 38.3594C10.7456 38.2666 10.9886 38.2415 11.2233 38.2872C11.458 38.3329 11.6738 38.4475 11.8432 38.6162C12.6073 39.4193 13.6579 39.8878 14.766 39.9196C15.8621 39.9196 16.7744 39.4559 16.7744 38.5201C16.7744 37.5842 16.0309 37.3749 15.0203 36.9732L13.8088 36.4284C11.8004 35.5887 10.5569 34.6763 10.5569 32.7769C10.5569 30.463 12.4927 29.1255 14.9519 29.1255C16.4027 29.1293 17.7953 29.6961 18.8363 30.7065C18.9627 30.8183 19.0647 30.9549 19.136 31.1078C19.2074 31.2607 19.2464 31.4267 19.2508 31.5954C19.2536 31.8959 19.1371 32.1853 18.9268 32.4C18.7165 32.6147 18.4296 32.7372 18.129 32.7406C17.8148 32.7119 17.5191 32.5787 17.2894 32.3624C16.593 31.8172 15.7399 31.5102 14.8558 31.4864C13.8687 31.4864 13.1465 31.8753 13.1465 32.7043C13.1465 33.5333 13.6571 33.7149 14.8024 34.1764L16.0202 34.6635C18.2829 35.6015 19.4388 36.5865 19.4388 38.4261C19.4153 40.9686 17.2274 42.2719 14.7404 42.2719ZM29.3504 42.0156C28.8129 42.2133 28.241 42.3005 27.6689 42.2719C24.6991 42.2719 23.0689 40.7507 23.0689 37.9261V31.8389H22.0817C21.9316 31.8488 21.781 31.829 21.6386 31.7806C21.4961 31.7323 21.3646 31.6563 21.2515 31.5571C21.1384 31.4579 21.0459 31.3374 20.9794 31.2024C20.9129 31.0675 20.8737 30.9208 20.8639 30.7706C20.8639 30.7215 20.8639 30.6702 20.8639 30.6211C20.8639 30.2981 20.9922 29.9883 21.2206 29.7599C21.449 29.5315 21.7587 29.4032 22.0817 29.4032H23.0689V27.32C23.0655 27.1426 23.0971 26.9663 23.162 26.8012C23.2269 26.636 23.3238 26.4853 23.447 26.3577C23.5703 26.23 23.7176 26.128 23.8803 26.0574C24.0431 25.9868 24.2183 25.949 24.3957 25.9462H24.4192C24.5934 25.9428 24.7666 25.9738 24.9289 26.0373C25.0912 26.1009 25.2394 26.1958 25.365 26.3166C25.4906 26.4375 25.5911 26.5819 25.6609 26.7416C25.7307 26.9013 25.7683 27.0732 25.7716 27.2474C25.7716 27.2709 25.7716 27.2965 25.7716 27.32V29.4887H28.4232C28.7458 29.4887 29.0552 29.6167 29.2836 29.8446C29.5119 30.0726 29.6405 30.3818 29.641 30.7044C29.6512 30.8546 29.6316 31.0053 29.5833 31.1479C29.5351 31.2905 29.4591 31.4221 29.3599 31.5353C29.2606 31.6484 29.14 31.7409 29.0049 31.8073C28.8698 31.8737 28.7229 31.9128 28.5727 31.9223C28.5222 31.9265 28.4715 31.9265 28.421 31.9223H25.7588V37.7894C25.7588 39.3128 26.4895 39.958 28.1924 39.958H28.9594C29.2367 39.9186 29.5184 39.9897 29.7437 40.156C29.9691 40.3222 30.1202 40.5703 30.1645 40.8468C30.173 40.9027 30.1773 40.9591 30.1773 41.0156C30.163 41.25 30.0736 41.4736 29.9224 41.6533C29.7712 41.833 29.5661 41.9593 29.3376 42.0134L29.3504 42.0156ZM43.3238 36.7937C43.3613 37.4802 43.2631 38.1674 43.0349 38.8159C42.8066 39.4645 42.4528 40.0617 41.9937 40.5734C41.5345 41.0852 40.979 41.5014 40.3589 41.7984C39.7388 42.0953 39.0662 42.2671 38.3797 42.304C38.2216 42.304 38.0635 42.3147 37.9054 42.304C37.217 42.3341 36.5295 42.2282 35.8821 41.9925C35.2346 41.7567 34.6401 41.3956 34.1323 40.9299C33.6245 40.4642 33.2135 39.903 32.9227 39.2783C32.632 38.6536 32.4672 37.9778 32.4378 37.2894C32.4293 37.1229 32.4293 36.956 32.4378 36.7894V30.5933C32.412 30.2473 32.5227 29.9049 32.7463 29.6396C32.9698 29.3742 33.2884 29.207 33.6338 29.1737C33.9792 29.1405 34.3238 29.2438 34.5939 29.4617C34.864 29.6795 35.038 29.9945 35.0787 30.3391C35.0872 30.4236 35.0872 30.5088 35.0787 30.5933V36.9475C35.064 37.307 35.1204 37.6658 35.2444 38.0034C35.3685 38.3411 35.5579 38.651 35.8017 38.9155C36.0455 39.1799 36.3391 39.3938 36.6656 39.5448C36.9921 39.6958 37.3451 39.7811 37.7045 39.7956H37.9032C38.2579 39.8027 38.6105 39.7399 38.9409 39.6106C39.2713 39.4814 39.5729 39.2884 39.8287 39.0425C40.0844 38.7967 40.2893 38.5029 40.4314 38.1779C40.5736 37.8529 40.6504 37.5031 40.6573 37.1484C40.6573 37.08 40.6573 37.0138 40.6573 36.9475V30.5976C40.6236 30.2443 40.7316 29.892 40.9576 29.6184C41.1836 29.3447 41.509 29.172 41.8623 29.1383C42.2157 29.1046 42.5679 29.2126 42.8416 29.4386C43.1152 29.6646 43.2879 29.99 43.3216 30.3433C43.3302 30.4279 43.3302 30.513 43.3216 30.5976L43.3238 36.7937ZM52.212 29.4908C52.5344 29.4908 52.8437 29.6189 53.0717 29.8469C53.2997 30.0749 53.4277 30.3841 53.4277 30.7065C53.4379 30.8567 53.4183 31.0074 53.37 31.15C53.3218 31.2926 53.2458 31.4242 53.1466 31.5374C53.0473 31.6506 52.9267 31.743 52.7916 31.8094C52.6565 31.8758 52.5097 31.9149 52.3594 31.9244C52.3097 31.9287 52.2596 31.9287 52.2099 31.9244H50.1887V40.9943C50.1887 41.1644 50.1548 41.3329 50.0891 41.4898C50.0233 41.6468 49.927 41.7891 49.8057 41.9084C49.6844 42.0277 49.5405 42.1217 49.3825 42.1848C49.2245 42.248 49.0555 42.2791 48.8853 42.2762H48.8725C48.6996 42.281 48.5274 42.2517 48.3659 42.1898C48.2043 42.1279 48.0566 42.0348 47.9311 41.9157C47.8057 41.7966 47.7049 41.6539 47.6348 41.4957C47.5646 41.3376 47.5263 41.1672 47.5222 40.9943C47.5201 40.9608 47.5201 40.9273 47.5222 40.8938V31.8283H46.6569C46.3577 31.8513 46.0617 31.7546 45.8337 31.5595C45.6058 31.3644 45.4646 31.0868 45.4411 30.7877C45.4177 30.4416 45.5325 30.1003 45.7604 29.8387C45.9884 29.5771 46.3108 29.4166 46.6569 29.3925H47.5222V27.0551C47.4153 26.0083 47.7283 24.9619 48.3926 24.1458C49.0569 23.3297 50.0179 22.8107 51.0647 22.7029C51.3155 22.6794 51.568 22.6794 51.8189 22.7029C52.3117 22.6944 52.8021 22.7733 53.2675 22.9358C53.5005 23.0226 53.7014 23.1786 53.8431 23.383C53.9848 23.5873 54.0606 23.8302 54.0602 24.0788C54.0596 24.2211 54.031 24.3618 53.9761 24.493C53.9211 24.6243 53.8409 24.7434 53.7399 24.8436C53.6389 24.9438 53.5192 25.0231 53.3875 25.077C53.2559 25.1309 53.1149 25.1584 52.9726 25.1578C52.9292 25.16 52.8857 25.16 52.8423 25.1578H52.2334C51.7291 25.1144 51.2281 25.2715 50.8389 25.595C50.4497 25.9186 50.2038 26.3826 50.1545 26.8863C50.1394 27.0284 50.1394 27.1716 50.1545 27.3136V29.5058L52.212 29.4908ZM61.3161 25.0745H60.6964C60.4113 25.0495 60.1243 25.0889 59.8565 25.1899C59.5887 25.2909 59.3471 25.4508 59.1495 25.6578C58.9519 25.8649 58.8034 26.1137 58.715 26.3859C58.6266 26.6581 58.6006 26.9467 58.6389 27.2303V29.4951H60.6473C60.9699 29.4951 61.2794 29.6231 61.5077 29.851C61.736 30.079 61.8646 30.3882 61.8652 30.7108C61.8768 30.8591 61.8592 31.0083 61.8132 31.1497C61.7672 31.2912 61.6938 31.4222 61.5972 31.5353C61.5006 31.6484 61.3826 31.7414 61.2501 31.8089C61.1175 31.8764 60.9729 31.9171 60.8246 31.9287C60.7656 31.933 60.7063 31.933 60.6473 31.9287H58.6389V40.9985C58.6511 41.1678 58.6295 41.3378 58.5755 41.4987C58.5214 41.6596 58.436 41.8081 58.3241 41.9357C58.2122 42.0633 58.0761 42.1675 57.9236 42.242C57.7712 42.3166 57.6054 42.3602 57.436 42.3702C57.3983 42.3724 57.3605 42.3724 57.3228 42.3702C57.1505 42.3809 56.9778 42.3576 56.8145 42.3015C56.6512 42.2455 56.5006 42.1578 56.3712 42.0435C56.2419 41.9292 56.1363 41.7906 56.0605 41.6355C55.9848 41.4804 55.9403 41.3118 55.9297 41.1395C55.9212 41.0586 55.9212 40.9769 55.9297 40.896V31.8283H55.0644C54.7652 31.8513 54.4692 31.7546 54.2412 31.5595C54.0133 31.3644 53.8721 31.0868 53.8486 30.7877C53.8252 30.4416 53.94 30.1003 54.1679 29.8387C54.3959 29.5771 54.7183 29.4166 55.0644 29.3925H55.9297V27.0551C55.8682 26.473 55.9366 25.8845 56.1298 25.332C56.3231 24.7795 56.6365 24.2767 57.0474 23.8598C57.4583 23.443 57.9566 23.1224 58.5063 22.9212C59.056 22.7201 59.6435 22.6433 60.2264 22.6965C60.7192 22.688 61.2097 22.7669 61.675 22.9293C61.908 23.0162 62.1089 23.1722 62.2506 23.3766C62.3923 23.5809 62.4681 23.8237 62.4677 24.0724C62.4485 24.359 62.3165 24.6262 62.1006 24.8156C61.8848 25.005 61.6027 25.1012 61.3161 25.083V25.0745Z" fill="white"/>
</svg>
